<svg fill="none" height="32" viewBox="0 0 32 32" width="32" xmlns="http://www.w3.org/2000/svg" xmlns:xlink="http://www.w3.org/1999/xlink"><filter id="a" color-interpolation-filters="sRGB" filterUnits="userSpaceOnUse" height="15.0648" width="13.6085" x="11.923" y="11.4286"><feFlood flood-opacity="0" result="BackgroundImageFix"/><feBlend in="SourceGraphic" in2="BackgroundImageFix" mode="normal" result="shape"/><feGaussianBlur result="effect1_foregroundBlur_20020_1063" stdDeviation="1"/></filter><radialGradient id="b" cx="0" cy="0" gradientTransform="matrix(10.49397278 18.25002025 -11.92250278 6.85557703 19.2673 13.8351)" gradientUnits="userSpaceOnUse" r="1"><stop offset=".00323036" stop-color="#ffc133"/><stop offset=".697824" stop-color="#ffc53f"/><stop offset=".797459" stop-color="#ffad3e"/><stop offset=".945275" stop-color="#ec7d58"/></radialGradient><linearGradient id="c"><stop offset=".00323036" stop-color="#ffe849"/><stop offset="1" stop-color="#ffe647" stop-opacity="0"/></linearGradient><radialGradient id="d" cx="0" cy="0" gradientTransform="matrix(-.65625011 -12.47284786 4.77830077 -.25140693 29.7612 18.4601)" gradientUnits="userSpaceOnUse" r="1" xlink:href="#c"/><radialGradient id="e" cx="0" cy="0" gradientTransform="matrix(-1.12500511 6.59374596 -2.52604693 -.43098653 28.2613 9.52261)" gradientUnits="userSpaceOnUse" r="1" xlink:href="#c"/><radialGradient id="f" cx="0" cy="0" gradientTransform="matrix(2.70547 0 0 10.9717 24.1808 13.5509)" gradientUnits="userSpaceOnUse" r="1"><stop offset="0" stop-color="#ee9f2c"/><stop offset="1" stop-color="#ee9f2c" stop-opacity="0"/></radialGradient><radialGradient id="g" cx="0" cy="0" gradientTransform="matrix(-.32443707 -4.54213775 3.15487216 -.22534708 25.368 17.8042)" gradientUnits="userSpaceOnUse" r="1"><stop offset="0" stop-color="#ffc93d"/><stop offset="1" stop-color="#ffc33a" stop-opacity="0"/></radialGradient><linearGradient id="h"><stop offset=".563302" stop-color="#f09d2e" stop-opacity="0"/><stop offset="1" stop-color="#f09d2e"/></linearGradient><radialGradient id="i" cx="0" cy="0" gradientTransform="matrix(-4.18749636 2.31887466 -4.65816376 -8.41185774 22.8238 10.8913)" gradientUnits="userSpaceOnUse" r="1" xlink:href="#h"/><linearGradient id="j"><stop offset="0" stop-color="#ffc337"/><stop offset="1" stop-color="#ffc337" stop-opacity="0"/></linearGradient><linearGradient id="k" gradientUnits="userSpaceOnUse" x1="20.3787" x2="20.3787" xlink:href="#j" y1="15.7952" y2="13.2101"/><linearGradient id="l"><stop offset="0" stop-color="#ffec4c"/><stop offset="1" stop-color="#ffec4c" stop-opacity="0"/></linearGradient><radialGradient id="m" cx="0" cy="0" gradientTransform="matrix(3.1250004 -.74999818 1.65852388 6.91053387 21.8238 7.08513)" gradientUnits="userSpaceOnUse" r="1" xlink:href="#l"/><linearGradient id="n"><stop offset="0" stop-color="#d99f2b"/><stop offset="1" stop-color="#d99f2b" stop-opacity="0"/></linearGradient><radialGradient id="o" cx="0" cy="0" gradientTransform="matrix(2.62211138 1.72282454 -1.3357196 2.03294386 16.5767 5.9873)" gradientUnits="userSpaceOnUse" r="1" xlink:href="#n"/><linearGradient id="p"><stop offset="0" stop-color="#a85300"/><stop offset=".824742" stop-color="#a85300" stop-opacity="0"/></linearGradient><linearGradient id="q" gradientUnits="userSpaceOnUse" x1="17.0738" x2="18.6363" xlink:href="#p" y1="12.3039" y2="11.5539"/><radialGradient id="r" cx="0" cy="0" gradientTransform="matrix(-3.96122391 2.36623865 -4.93787286 -8.26629217 18.3129 12.3705)" gradientUnits="userSpaceOnUse" r="1" xlink:href="#h"/><linearGradient id="s" gradientUnits="userSpaceOnUse" x1="15.9999" x2="15.9999" xlink:href="#j" y1="17.3746" y2="14.7367"/><radialGradient id="t" cx="0" cy="0" gradientTransform="matrix(2.54183374 -1.70758422 5.19873699 7.73860811 17.7812 9.42885)" gradientUnits="userSpaceOnUse" r="1" xlink:href="#l"/><linearGradient id="u"><stop offset=".597587" stop-color="#f09d2e" stop-opacity="0"/><stop offset="1" stop-color="#f09d2e"/></linearGradient><radialGradient id="v" cx="0" cy="0" gradientTransform="matrix(3.5000016 -1.62500306 7.41994781 15.98140327 15.4488 13.2101)" gradientUnits="userSpaceOnUse" r="1" xlink:href="#u"/><radialGradient id="w" cx="0" cy="0" gradientTransform="matrix(2.68749782 1.71876621 -1.36988487 2.14197985 11.9488 7.36633)" gradientUnits="userSpaceOnUse" r="1" xlink:href="#n"/><linearGradient id="x" gradientUnits="userSpaceOnUse" x1="13.355" x2="14.3947" xlink:href="#p" y1="13.8351" y2="13.1082"/><radialGradient id="y" cx="0" cy="0" gradientTransform="matrix(-2.81156883 2.58981121 -5.07135708 -5.5056019 15.6353 16.3702)" gradientUnits="userSpaceOnUse" r="1" xlink:href="#h"/><linearGradient id="z" gradientUnits="userSpaceOnUse" x1="13.4417" x2="13.4417" xlink:href="#j" y1="20.5694" y2="18.3558"/><radialGradient id="A" cx="0" cy="0" gradientTransform="matrix(2.84456925 -.61998757 1.31330206 6.02557024 14.6972 13.0888)" gradientUnits="userSpaceOnUse" r="1" xlink:href="#l"/><radialGradient id="B" cx="0" cy="0" gradientTransform="matrix(3.0923079 -2.61472963 13.36739917 15.80894392 12.9189 17.0748)" gradientUnits="userSpaceOnUse" r="1" xlink:href="#u"/><radialGradient id="C" cx="0" cy="0" gradientTransform="matrix(2.54888163 1.44228752 -1.085504 1.91835621 9.59946 12.171)" gradientUnits="userSpaceOnUse" r="1" xlink:href="#n"/><radialGradient id="D" cx="0" cy="0" gradientTransform="matrix(1.15625079 -1.18750087 5.36169078 5.22059338 11.1362 17.9288)" gradientUnits="userSpaceOnUse" r="1" xlink:href="#p"/><radialGradient id="E" cx="0" cy="0" gradientTransform="matrix(-3.01579139 2.24225703 -4.21893511 -5.67438434 14.7851 20.7178)" gradientUnits="userSpaceOnUse" r="1" xlink:href="#h"/><radialGradient id="F" cx="0" cy="0" gradientTransform="matrix(3.05119328 -.53678056 .93252076 5.30067827 13.7789 17.8768)" gradientUnits="userSpaceOnUse" r="1" xlink:href="#l"/><radialGradient id="G" cx="0" cy="0" gradientTransform="matrix(3.31692911 -2.26381799 10.92952878 16.01386344 11.8714 21.3278)" gradientUnits="userSpaceOnUse" r="1" xlink:href="#u"/><radialGradient id="H" cx="0" cy="0" gradientTransform="matrix(2.73402977 1.24872483 -.82862782 1.81424529 8.31082 17.0822)" gradientUnits="userSpaceOnUse" r="1" xlink:href="#n"/><linearGradient id="I" gradientUnits="userSpaceOnUse" x1="14.9487" x2="12.4321" xlink:href="#j" y1="27.5851" y2="22.4369"/><radialGradient id="J" cx="0" cy="0" gradientTransform="matrix(-10.937552 13.50000579 -21.83239208 -17.68835713 23.9487 12.5226)" gradientUnits="userSpaceOnUse" r="1"><stop offset=".872168" stop-color="#f6814f" stop-opacity="0"/><stop offset="1" stop-color="#f7814f"/></radialGradient><radialGradient id="K" cx="0" cy="0" gradientTransform="matrix(4.37500525 17.93746849 -19.68134721 4.80034278 20.3237 12.7101)" gradientUnits="userSpaceOnUse" r="1"><stop offset=".853453" stop-color="#f6814f" stop-opacity="0"/><stop offset="1" stop-color="#f7814f"/></radialGradient><radialGradient id="L" cx="0" cy="0" gradientTransform="matrix(1.37500296 2.87500169 -2.56301671 1.22579251 24.5112 8.02263)" gradientUnits="userSpaceOnUse" r="1" xlink:href="#n"/><radialGradient id="M" cx="0" cy="0" gradientTransform="matrix(-1.04301894 .62043247 -1.91985406 -3.22749731 24.4644 14.1163)" gradientUnits="userSpaceOnUse" r="1"><stop offset=".200941" stop-color="#b4813d"/><stop offset="1" stop-color="#b4813d" stop-opacity="0"/></radialGradient><linearGradient id="N"><stop offset="0" stop-color="#419ffd"/><stop offset="1" stop-color="#4b6dcb"/></linearGradient><radialGradient id="O" cx="0" cy="0" gradientTransform="matrix(2.48809861 4.69345453 -6.96059795 3.68995885 4.89281 17.1893)" gradientUnits="userSpaceOnUse" r="1" xlink:href="#N"/><linearGradient id="P"><stop offset="0" stop-color="#5486c7"/><stop offset="1" stop-color="#5486c7" stop-opacity="0"/></linearGradient><radialGradient id="Q" cx="0" cy="0" gradientTransform="matrix(.75000024 .03124996 -.06576574 1.57838048 3.39058 17.5851)" gradientUnits="userSpaceOnUse" r="1" xlink:href="#P"/><radialGradient id="R" cx="0" cy="0" gradientTransform="matrix(-.28124505 .70312719 -2.06815989 -.82724681 9.01558 21.8663)" gradientUnits="userSpaceOnUse" r="1" xlink:href="#P"/><radialGradient id="S" cx="0" cy="0" gradientTransform="matrix(-.34517999 4.1874973 -7.04086955 -.58038659 5.28119 19.9601)" gradientUnits="userSpaceOnUse" r="1" xlink:href="#N"/><radialGradient id="T" cx="0" cy="0" gradientTransform="matrix(.71541685 .0297946 -.06267278 1.50487551 1.72203 19.4759)" gradientUnits="userSpaceOnUse" r="1" xlink:href="#P"/><radialGradient id="U" cx="0" cy="0" gradientTransform="matrix(2.21837311 3.87283949 -5.74359384 3.28994635 18.5077 2.34614)" gradientUnits="userSpaceOnUse" r="1" xlink:href="#N"/><linearGradient id="V"><stop offset="0" stop-color="#4d8ac1"/><stop offset="1" stop-color="#4d8ac1" stop-opacity="0"/></linearGradient><radialGradient id="W" cx="0" cy="0" gradientTransform="matrix(.6076313 .20758619 -.33411991 .97801166 16.67 3.96233)" gradientUnits="userSpaceOnUse" r="1" xlink:href="#V"/><radialGradient id="X" cx="0" cy="0" gradientTransform="matrix(2.71428361 4.83481907 -7.17211073 4.02644697 20.3868 .762206)" gradientUnits="userSpaceOnUse" r="1" xlink:href="#N"/><radialGradient id="Y" cx="0" cy="0" gradientTransform="matrix(.57961299 .19791597 -.31843501 .93256281 18.6339 2.30313)" gradientUnits="userSpaceOnUse" r="1" xlink:href="#V"/><path d="m20.3504 7.07742c1.2166 2.68265 2.7096 5.97478 3.8304 7.28248.2188-.5081.1954-1.36.4455-3.439.2259-1.87738 1.7742-2.05555 2.4385-1.92268 1.4694.30638 1.917 1.79568 1.868 2.34478-.0782.8753-.0819.8455-.2423 2.9621-.2345 3.0951.9614 5.432 1.0708 8.0816 0 4.9943-4.3769 7.4484-7.4407 7.4484-2.451 0-4.9031-1.5683-5.8227-2.3525l-4.5957-4.1971c-.5627-.4377-1.95359-1.8818-2.56368-2.7121-1.6632-2.2634.74258-3.8219 2.09468-3.4311-.1063-.0813-.7477-1.1229-1.0551-1.6335-.82534-1.657 0-2.7607.6096-3.0638 1.3834-.6878 2.3995.086 2.7199.508-.1224-.2084-.5064-1.0504-1.1254-2.5948-.619-1.54444.3777-2.49848.9535-2.78246 1.2505-.57837 2.4385.15632 2.7355.81285.1455.32149.93 2.03971 1.2716 2.79751-.2575-.6284-.7237-1.87669-.8886-2.45362-.3283-1.35995.4611-2.29261.9613-2.5323.6955-.33326 2.1464-.42055 2.7199.84411z" fill="url(#b)"/><path d="m20.3504 7.07742c1.2166 2.68265 2.7095 5.97478 3.8304 7.28248.2188-.5081.1953-1.36.4454-3.439.2259-1.87738 1.7742-2.05555 2.4386-1.92268 1.4693.30638 1.917 1.79568 1.8679 2.34478-.0781.8753-.0819.8455-.2422 2.9621-.2345 3.0951.9613 5.432 1.0707 8.0816 0 4.9943-4.3768 7.4484-7.4406 7.4484-2.451 0-4.9031-1.5683-5.8228-2.3525l-4.5957-4.1971c-.5627-.4377-1.95355-1.8818-2.56364-2.7121-1.6632-2.2634.74264-3.8219 2.09464-3.4311-.1063-.0813-.7477-1.1229-1.0551-1.6335-.8253-1.657 0-2.7607.6097-3.0638 1.3834-.6878 2.3994.086 2.7199.508-.1225-.2084-.5065-1.0504-1.1255-2.5948-.619-1.54444.3778-2.49848.9535-2.78246 1.2506-.57837 2.4386.15632 2.7356.81285.1454.32149.9299 2.03971 1.2715 2.79751-.2574-.6284-.7237-1.87669-.8886-2.45362-.3282-1.35995.4611-2.29261.9613-2.5323.6956-.33326 2.1464-.42055 2.7199.84411z" fill="url(#d)"/><path d="m28.9328 11.3429c-.0782.8754-.082.8456-.2423 2.9622-.0829 1.0936.5118 5.1213.5118 5.1213-1.4453.4719-4.576-.1538-5.0215-5.0666.2188-.508.1954-1.3599.4455-3.4389.2258-1.8774 1.7742-2.05557 2.4385-1.9227 1.4694.30638 1.917 1.7957 1.868 2.3447z" fill="url(#e)"/><path d="m28.9328 11.3429c-.0782.8754-.082.8456-.2423 2.9622-.0829 1.0936.5118 5.1213.5118 5.1213-1.4453.4719-4.576-.1538-5.0215-5.0666.2188-.508.1954-1.3599.4455-3.4389.2258-1.8774 1.7742-2.05557 2.4385-1.9227 1.4694.30638 1.917 1.7957 1.868 2.3447z" fill="url(#f)"/><path d="m28.9328 11.3429c-.0782.8754-.082.8456-.2423 2.9622-.0829 1.0936.5118 5.1213.5118 5.1213-1.4453.4719-4.576-.1538-5.0215-5.0666.2188-.508.1954-1.3599.4455-3.4389.2258-1.8774 1.7742-2.05557 2.4385-1.9227 1.4694.30638 1.917 1.7957 1.868 2.3447z" fill="url(#g)"/><path d="m20.3504 7.07743c1.2166 2.68265 2.7096 5.97477 3.8304 7.28247-.1754 1.4964-1.5128 2.2118-2.6652 1.944-1.4531-.4219-2.0043-1.4531-2.0043-1.4531s-.3795-.5875-.75-1.2344c-.4285-.7484-.3504-.7316-1.0676-2.0859-.1407-.2657-.8311-2.06855-1.0395-2.79802-.3283-1.35995.4611-2.29261.9613-2.5323.6955-.33326 2.1463-.42055 2.7199.84411z" fill="url(#i)"/><path d="m20.3504 7.07743c1.2166 2.68265 2.7096 5.97477 3.8304 7.28247-.1754 1.4964-1.5128 2.2118-2.6652 1.944-1.4531-.4219-2.0043-1.4531-2.0043-1.4531s-.3795-.5875-.75-1.2344c-.4285-.7484-.3504-.7316-1.0676-2.0859-.1407-.2657-.8311-2.06855-1.0395-2.79802-.3283-1.35995.4611-2.29261.9613-2.5323.6955-.33326 2.1463-.42055 2.7199.84411z" fill="url(#k)"/><path d="m20.3504 7.07743c1.2166 2.68265 2.7096 5.97477 3.8304 7.28247-.1754 1.4964-1.5128 2.2118-2.6652 1.944-1.4531-.4219-2.0043-1.4531-2.0043-1.4531s-.3795-.5875-.75-1.2344c-.4285-.7484-.3504-.7316-1.0676-2.0859-.1407-.2657-.8311-2.06855-1.0395-2.79802-.3283-1.35995.4611-2.29261.9613-2.5323.6955-.33326 2.1463-.42055 2.7199.84411z" fill="url(#m)"/><path d="m20.3504 7.07743c1.2166 2.68265 2.7096 5.97477 3.8304 7.28247-.1754 1.4964-1.5128 2.2118-2.6652 1.944-1.4531-.4219-2.0043-1.4531-2.0043-1.4531s-.3795-.5875-.75-1.2344c-.4285-.7484-.3504-.7316-1.0676-2.0859-.1407-.2657-.8311-2.06855-1.0395-2.79802-.3283-1.35995.4611-2.29261.9613-2.5323.6955-.33326 2.1463-.42055 2.7199.84411z" fill="url(#o)"/><path d="m20.3504 7.07743c1.2166 2.68265 2.7096 5.97477 3.8304 7.28247-.1754 1.4964-1.5128 2.2118-2.6652 1.944-1.4531-.4219-2.0043-1.4531-2.0043-1.4531s-.3795-.5875-.75-1.2344c-.4285-.7484-.3504-.7316-1.0676-2.0859-.1407-.2657-.8311-2.06855-1.0395-2.79802-.3283-1.35995.4611-2.29261.9613-2.5323.6955-.33326 2.1463-.42055 2.7199.84411z" fill="url(#q)"/><path d="m16.2712 8.38855c.1956.43245 1.5475 3.39205 1.4225 3.14195.3636.8197 1.4894 2.8202 1.8176 3.3671.7235 1.2059-.0931 2.2092-.6207 2.5156-1.5164.8807-2.3872-.2422-2.3872-.2422-.7997-1.1725-1.4687-2.1484-2.789-4.2265-.3182-.5989-.8984-1.9375-1.1322-2.5864-.5772-1.60168.3777-2.49842.9535-2.78239 1.2505-.57837 2.4385.15632 2.7355.81284z" fill="url(#r)"/><path d="m16.2712 8.38855c.1956.43245 1.5475 3.39205 1.4225 3.14195.3636.8197 1.4894 2.8202 1.8176 3.3671.7235 1.2059-.0931 2.2092-.6207 2.5156-1.5164.8807-2.3872-.2422-2.3872-.2422-.7997-1.1725-1.4687-2.1484-2.789-4.2265-.3182-.5989-.8984-1.9375-1.1322-2.5864-.5772-1.60168.3777-2.49842.9535-2.78239 1.2505-.57837 2.4385.15632 2.7355.81284z" fill="url(#s)"/><path d="m16.2712 8.38855c.1956.43245 1.5475 3.39205 1.4225 3.14195.3636.8197 1.4894 2.8202 1.8176 3.3671.7235 1.2059-.0931 2.2092-.6207 2.5156-1.5164.8807-2.3872-.2422-2.3872-.2422-.7997-1.1725-1.4687-2.1484-2.789-4.2265-.3182-.5989-.8984-1.9375-1.1322-2.5864-.5772-1.60168.3777-2.49842.9535-2.78239 1.2505-.57837 2.4385.15632 2.7355.81284z" fill="url(#t)"/><path d="m16.2712 8.38855c.1956.43245 1.5475 3.39205 1.4225 3.14195.3636.8197 1.4894 2.8202 1.8176 3.3671.7235 1.2059-.0931 2.2092-.6207 2.5156-1.5164.8807-2.3872-.2422-2.3872-.2422-.7997-1.1725-1.4687-2.1484-2.789-4.2265-.3182-.5989-.8984-1.9375-1.1322-2.5864-.5772-1.60168.3777-2.49842.9535-2.78239 1.2505-.57837 2.4385.15632 2.7355.81284z" fill="url(#v)"/><path d="m16.2712 8.38855c.1956.43245 1.5475 3.39205 1.4225 3.14195.3636.8197 1.4894 2.8202 1.8176 3.3671.7235 1.2059-.0931 2.2092-.6207 2.5156-1.5164.8807-2.3872-.2422-2.3872-.2422-.7997-1.1725-1.4687-2.1484-2.789-4.2265-.3182-.5989-.8984-1.9375-1.1322-2.5864-.5772-1.60168.3777-2.49842.9535-2.78239 1.2505-.57837 2.4385.15632 2.7355.81284z" fill="url(#w)"/><path d="m16.2712 8.38855c.1956.43245 1.5475 3.39205 1.4225 3.14195.3636.8197 1.4894 2.8202 1.8176 3.3671.7235 1.2059-.0931 2.2092-.6207 2.5156-1.5164.8807-2.3872-.2422-2.3872-.2422-.7997-1.1725-1.4687-2.1484-2.789-4.2265-.3182-.5989-.8984-1.9375-1.1322-2.5864-.5772-1.60168.3777-2.49842.9535-2.78239 1.2505-.57837 2.4385.15632 2.7355.81284z" fill="url(#x)"/><path d="m10.9878 12.4449c1.3834-.6878 2.3994.086 2.7199.508.9988 1.5071 2.1903 3.221 2.741 4.1321 1.4688 2.4297-1.539 3.4844-1.539 3.4844-2.7657-3.1172-3.2773-3.2749-3.4765-3.4272-.1063-.0813-.7477-1.1229-1.0551-1.6335-.82535-1.6569 0-2.7607.6097-3.0638z" fill="url(#y)"/><path d="m10.9878 12.4449c1.3834-.6878 2.3994.086 2.7199.508.9988 1.5071 2.1903 3.221 2.741 4.1321 1.4688 2.4297-1.539 3.4844-1.539 3.4844-2.7657-3.1172-3.2773-3.2749-3.4765-3.4272-.1063-.0813-.7477-1.1229-1.0551-1.6335-.82535-1.6569 0-2.7607.6097-3.0638z" fill="url(#z)"/><path d="m10.9878 12.4449c1.3834-.6878 2.3994.086 2.7199.508.9988 1.5071 2.1903 3.221 2.741 4.1321 1.4688 2.4297-1.539 3.4844-1.539 3.4844-2.7657-3.1172-3.2773-3.2749-3.4765-3.4272-.1063-.0813-.7477-1.1229-1.0551-1.6335-.82535-1.6569 0-2.7607.6097-3.0638z" fill="url(#A)"/><path d="m10.9878 12.4449c1.3834-.6878 2.3994.086 2.7199.508.9988 1.5071 2.1903 3.221 2.741 4.1321 1.4688 2.4297-1.539 3.4844-1.539 3.4844-2.7657-3.1172-3.2773-3.2749-3.4765-3.4272-.1063-.0813-.7477-1.1229-1.0551-1.6335-.82535-1.6569 0-2.7607.6097-3.0638z" fill="url(#B)"/><path d="m10.9878 12.4449c1.3834-.6878 2.3994.086 2.7199.508.9988 1.5071 2.1903 3.221 2.741 4.1321 1.4688 2.4297-1.539 3.4844-1.539 3.4844-2.7657-3.1172-3.2773-3.2749-3.4765-3.4272-.1063-.0813-.7477-1.1229-1.0551-1.6335-.82535-1.6569 0-2.7607.6097-3.0638z" fill="url(#C)"/><path d="m10.9878 12.4449c1.3834-.6878 2.3994.086 2.7199.508.9988 1.5071 2.1903 3.221 2.741 4.1321 1.4688 2.4297-1.539 3.4844-1.539 3.4844-2.7657-3.1172-3.2773-3.2749-3.4765-3.4272-.1063-.0813-.7477-1.1229-1.0551-1.6335-.82535-1.6569 0-2.7607.6097-3.0638z" fill="url(#D)"/><path d="m9.33846 20.5734c-1.6632-2.2635.74264-3.822 2.09464-3.4312.6406.396 1.629 1.3871 2.0512 1.8335 2.6813 2.6151 2.2344 3.4219 1.4844 4.3097-.7267.603-1.6714 1.0852-3.0666 0-.5627-.4376-1.95355-1.8818-2.56364-2.712z" fill="url(#E)"/><path d="m9.33846 20.5734c-1.6632-2.2635.74264-3.822 2.09464-3.4312.6406.396 1.629 1.3871 2.0512 1.8335 2.6813 2.6151 2.2344 3.4219 1.4844 4.3097-.7267.603-1.6714 1.0852-3.0666 0-.5627-.4376-1.95355-1.8818-2.56364-2.712z" fill="url(#F)"/><path d="m9.33846 20.5734c-1.6632-2.2635.74264-3.822 2.09464-3.4312.6406.396 1.629 1.3871 2.0512 1.8335 2.6813 2.6151 2.2344 3.4219 1.4844 4.3097-.7267.603-1.6714 1.0852-3.0666 0-.5627-.4376-1.95355-1.8818-2.56364-2.712z" fill="url(#G)"/><path d="m9.33846 20.5734c-1.6632-2.2635.74264-3.822 2.09464-3.4312.6406.396 1.629 1.3871 2.0512 1.8335 2.6813 2.6151 2.2344 3.4219 1.4844 4.3097-.7267.603-1.6714 1.0852-3.0666 0-.5627-.4376-1.95355-1.8818-2.56364-2.712z" fill="url(#H)"/><path d="m9.33846 20.5734c-1.6632-2.2635.74264-3.822 2.09464-3.4312.6406.396 1.629 1.3871 2.0512 1.8335 2.6813 2.6151 2.2344 3.4219 1.4844 4.3097-.7267.603-1.6714 1.0852-3.0666 0-.5627-.4376-1.95355-1.8818-2.56364-2.712z" fill="url(#I)"/><path d="m20.3504 7.07742c1.2166 2.68265 2.7095 5.97478 3.8304 7.28248.2188-.5081.1953-1.36.4454-3.439.2259-1.87738 1.7742-2.05555 2.4386-1.92268 1.4693.30638 1.917 1.79568 1.8679 2.34478-.0781.8753-.0819.8455-.2422 2.9621-.2345 3.0951.9613 5.432 1.0707 8.0816 0 4.9943-4.3768 7.4484-7.4406 7.4484-2.451 0-4.9031-1.5683-5.8228-2.3525l-4.5957-4.1971c-.5627-.4377-1.95355-1.8818-2.56364-2.7121-1.6632-2.2634.74264-3.8219 2.09464-3.4311-.1063-.0813-.7477-1.1229-1.0551-1.6335-.8253-1.657 0-2.7607.6097-3.0638 1.3834-.6878 2.3994.086 2.7199.508-.1225-.2084-.5065-1.0504-1.1255-2.5948-.619-1.54444.3778-2.49848.9535-2.78246 1.2506-.57837 2.4386.15632 2.7356.81285.1454.32149.9299 2.03971 1.2715 2.79751-.2574-.6284-.7237-1.87669-.8886-2.45362-.3282-1.35995.4611-2.29261.9613-2.5323.6956-.33326 2.1464-.42055 2.7199.84411z" fill="url(#J)"/><path d="m20.3504 7.07742c1.2166 2.68265 2.7095 5.97478 3.8304 7.28248.2188-.5081.1953-1.36.4454-3.439.2259-1.87738 1.7742-2.05555 2.4386-1.92268 1.4693.30638 1.917 1.79568 1.8679 2.34478-.0781.8753-.0819.8455-.2422 2.9621-.2345 3.0951.9613 5.432 1.0707 8.0816 0 4.9943-4.3768 7.4484-7.4406 7.4484-2.451 0-4.9031-1.5683-5.8228-2.3525l-4.5957-4.1971c-.5627-.4377-1.95355-1.8818-2.56364-2.7121-1.6632-2.2634.74264-3.8219 2.09464-3.4311-.1063-.0813-.7477-1.1229-1.0551-1.6335-.8253-1.657 0-2.7607.6097-3.0638 1.3834-.6878 2.3994.086 2.7199.508-.1225-.2084-.5065-1.0504-1.1255-2.5948-.619-1.54444.3778-2.49848.9535-2.78246 1.2506-.57837 2.4386.15632 2.7356.81285.1454.32149.9299 2.03971 1.2715 2.79751-.2574-.6284-.7237-1.87669-.8886-2.45362-.3282-1.35995.4611-2.29261.9613-2.5323.6956-.33326 2.1464-.42055 2.7199.84411z" fill="url(#K)"/><path d="m20.3504 7.07742c1.2166 2.68265 2.7095 5.97478 3.8304 7.28248.2188-.5081.1953-1.36.4454-3.439.2259-1.87738 1.7742-2.05555 2.4386-1.92268 1.4693.30638 1.917 1.79568 1.8679 2.34478-.0781.8753-.0819.8455-.2422 2.9621-.2345 3.0951.9613 5.432 1.0707 8.0816 0 4.9943-4.3768 7.4484-7.4406 7.4484-2.451 0-4.9031-1.5683-5.8228-2.3525l-4.5957-4.1971c-.5627-.4377-1.95355-1.8818-2.56364-2.7121-1.6632-2.2634.74264-3.8219 2.09464-3.4311-.1063-.0813-.7477-1.1229-1.0551-1.6335-.8253-1.657 0-2.7607.6097-3.0638 1.3834-.6878 2.3994.086 2.7199.508-.1225-.2084-.5065-1.0504-1.1255-2.5948-.619-1.54444.3778-2.49848.9535-2.78246 1.2506-.57837 2.4386.15632 2.7356.81285.1454.32149.9299 2.03971 1.2715 2.79751-.2574-.6284-.7237-1.87669-.8886-2.45362-.3282-1.35995.4611-2.29261.9613-2.5323.6956-.33326 2.1464-.42055 2.7199.84411z" fill="url(#L)"/><path d="m22.0462 10.6675c.7508 1.5346 1.5009 2.9093 2.1347 3.6621.0648.6696.1233 1.0524.2835 1.6305-1.2656-1.2656-2.4895-4.0332-2.4182-5.2926z" fill="url(#M)"/><g clip-rule="evenodd" fill-rule="evenodd"><path d="m4.126 16.9004c.29766 0 .53897.2413.53897.539 0 .9006.3642 2.106 1.14873 3.0791.77112.9565 1.93991 1.681 3.58015 1.681.29766 0 .53896.2413.53896.539 0 .2976-.2413.5389-.53896.5389-2.00193 0-3.46706-.9012-4.41932-2.0823-.93886-1.1645-1.38749-2.6087-1.38749-3.7557 0-.2977.2413-.539.53896-.539z" fill="url(#O)"/><path d="m4.126 16.9004c.29766 0 .53897.2413.53897.539 0 .9006.3642 2.106 1.14873 3.0791.77112.9565 1.93991 1.681 3.58015 1.681.29766 0 .53896.2413.53896.539 0 .2976-.2413.5389-.53896.5389-2.00193 0-3.46706-.9012-4.41932-2.0823-.93886-1.1645-1.38749-2.6087-1.38749-3.7557 0-.2977.2413-.539.53896-.539z" fill="url(#Q)"/><path d="m4.126 16.9004c.29766 0 .53897.2413.53897.539 0 .9006.3642 2.106 1.14873 3.0791.77112.9565 1.93991 1.681 3.58015 1.681.29766 0 .53896.2413.53896.539 0 .2976-.2413.5389-.53896.5389-2.00193 0-3.46706-.9012-4.41932-2.0823-.93886-1.1645-1.38749-2.6087-1.38749-3.7557 0-.2977.2413-.539.53896-.539z" fill="url(#R)"/><path d="m2.44839 18.8231c.29766 0 .53896.2413.53896.539 0 1.9104 1.43109 4.4631 4.43628 4.4631.29766 0 .53896.2413.53896.539s-.2413.539-.53896.539c-3.77892 0-5.51421-3.231-5.51421-5.5411 0-.2977.24131-.539.53897-.539z" fill="url(#S)"/><path d="m2.44839 18.8231c.29766 0 .53896.2413.53896.539 0 1.9104 1.43109 4.4631 4.43628 4.4631.29766 0 .53896.2413.53896.539s-.2413.539-.53896.539c-3.77892 0-5.51421-3.231-5.51421-5.5411 0-.2977.24131-.539.53897-.539z" fill="url(#T)"/><path d="m22.6363 9.85191c-.2977.00195-.5406-.23777-.5425-.53543-.0059-.90063-.378-2.10365-1.1688-3.0716-.7774-.95141-1.9509-1.66825-3.5911-1.65753-.2976.00194-.5405-.23778-.5425-.53543-.0019-.29766.2378-.54053.5355-.54248 2.0018-.01308 3.4728.87851 4.4328 2.05341.9464 1.15836 1.4045 2.59952 1.412 3.74659.002.29765-.2378.54053-.5354.54247z" fill="url(#U)"/><path d="m22.6363 9.85191c-.2977.00195-.5406-.23777-.5425-.53543-.0059-.90063-.378-2.10365-1.1688-3.0716-.7774-.95141-1.9509-1.66825-3.5911-1.65753-.2976.00194-.5405-.23778-.5425-.53543-.0019-.29766.2378-.54053.5355-.54248 2.0018-.01308 3.4728.87851 4.4328 2.05341.9464 1.15836 1.4045 2.59952 1.412 3.74659.002.29765-.2378.54053-.5354.54247z" fill="url(#W)"/><path d="m24.3002 7.91856c-.2977.00195-.5406-.23777-.5425-.53543-.0125-1.91039-1.4602-4.45369-4.4654-4.43405-.2976.00194-.5405-.23778-.5424-.53543-.002-.29766.2377-.54053.5354-.54248 3.7788-.0247 5.5352 3.19487 5.5503 5.50492.0019.29765-.2378.54053-.5354.54247z" fill="url(#X)"/><path d="m24.3002 7.91856c-.2977.00195-.5406-.23777-.5425-.53543-.0125-1.91039-1.4602-4.45369-4.4654-4.43405-.2976.00194-.5405-.23778-.5424-.53543-.002-.29766.2377-.54053.5354-.54248 3.7788-.0247 5.5352 3.19487 5.5503 5.50492.0019.29765-.2378.54053-.5354.54247z" fill="url(#Y)"/></g><g filter="url(#a)"><path d="m22.5312 14.4289c-1.9375.7812-6.3194 3.3472-7.608 9.0643" stroke="#ffc339" stroke-linecap="round" stroke-width="2"/></g></svg>