<svg fill="none" height="32" viewBox="0 0 32 32" width="32" xmlns="http://www.w3.org/2000/svg" xmlns:xlink="http://www.w3.org/1999/xlink"><filter id="a" color-interpolation-filters="sRGB" filterUnits="userSpaceOnUse" height="18.9099" width="14.5255" x="9.48987" y="11.0846"><feFlood flood-opacity="0" result="BackgroundImageFix"/><feBlend in="SourceGraphic" in2="BackgroundImageFix" mode="normal" result="shape"/><feColorMatrix in="SourceAlpha" result="hardAlpha" type="matrix" values="0 0 0 0 0 0 0 0 0 0 0 0 0 0 0 0 0 0 127 0"/><feOffset dx=".5"/><feGaussianBlur stdDeviation=".25"/><feComposite in2="hardAlpha" k2="-1" k3="1" operator="arithmetic"/><feColorMatrix type="matrix" values="0 0 0 0 0.952941 0 0 0 0 0.615686 0 0 0 0 0.364706 0 0 0 1 0"/><feBlend in2="shape" mode="normal" result="effect1_innerShadow_18_15821"/></filter><filter id="b" color-interpolation-filters="sRGB" filterUnits="userSpaceOnUse" height="22.1152" width="11.4237" x="5.7229" y="2.32654"><feFlood flood-opacity="0" result="BackgroundImageFix"/><feBlend in="SourceGraphic" in2="BackgroundImageFix" mode="normal" result="shape"/><feGaussianBlur result="effect1_foregroundBlur_18_15821" stdDeviation=".625"/></filter><filter id="c" color-interpolation-filters="sRGB" filterUnits="userSpaceOnUse" height="14.0839" width="6.86804" x="4.49231" y="6.37427"><feFlood flood-opacity="0" result="BackgroundImageFix"/><feBlend in="SourceGraphic" in2="BackgroundImageFix" mode="normal" result="shape"/><feGaussianBlur result="effect1_foregroundBlur_18_15821" stdDeviation=".75"/></filter><radialGradient id="d" cx="0" cy="0" gradientTransform="matrix(-17.09807946 -.15697216 .23672421 -25.78501338 24.0023 19.72)" gradientUnits="userSpaceOnUse" r="1"><stop offset="0" stop-color="#ff953d"/><stop offset="1" stop-color="#ff5141"/></radialGradient><radialGradient id="e" cx="0" cy="0" gradientTransform="matrix(-9.58661596 -3.88551144 6.70473376 -16.54240597 10.3724 15.6549)" gradientUnits="userSpaceOnUse" r="1"><stop offset="0" stop-color="#ce5327"/><stop offset="1" stop-color="#ce5327" stop-opacity="0"/></radialGradient><linearGradient id="f" gradientUnits="userSpaceOnUse" x1="18.3364" x2="18.3364" y1="29.944" y2="24.8455"><stop offset="0" stop-color="#ff7583"/><stop offset="1" stop-color="#ff7583" stop-opacity="0"/></linearGradient><radialGradient id="g" cx="0" cy="0" gradientTransform="matrix(2.83591042 1.26351245 -10.45887068 23.47457699 4.95718 14.3914)" gradientUnits="userSpaceOnUse" r="1"><stop offset="0" stop-color="#ffaa7b"/><stop offset="1" stop-color="#ffaa7b" stop-opacity="0"/></radialGradient><radialGradient id="h" cx="0" cy="0" gradientTransform="matrix(.84300474 3.74668268 -4.67499482 1.05187525 9.31032 6.25095)" gradientUnits="userSpaceOnUse" r="1"><stop offset="0" stop-color="#ff5e47"/><stop offset="1" stop-color="#ff5e47" stop-opacity="0"/></radialGradient><radialGradient id="i" cx="0" cy="0" gradientTransform="matrix(.37467221 10.1304738 -9.37679909 .34679781 16.429 1.36584)" gradientUnits="userSpaceOnUse" r="1"><stop offset="0" stop-color="#ff2f3c"/><stop offset="1" stop-color="#ff2f3c" stop-opacity="0"/></radialGradient><radialGradient id="j" cx="0" cy="0" gradientTransform="matrix(2.07795162 .98350809 -1.97369854 4.17002169 13.9 4.79911)" gradientUnits="userSpaceOnUse" r="1"><stop offset="0" stop-color="#ff846c"/><stop offset="1" stop-color="#ff846c" stop-opacity="0"/></radialGradient><radialGradient id="k" cx="0" cy="0" gradientTransform="matrix(-.89842254 2.09375424 -.47980907 -.20588437 12.4577 8.20959)" gradientUnits="userSpaceOnUse" r="1"><stop offset="0" stop-color="#ffa682"/><stop offset="1" stop-color="#ffa682" stop-opacity="0"/></radialGradient><radialGradient id="l" cx="0" cy="0" gradientTransform="matrix(-9.82978188 -1.98953137 2.477536 -12.24089189 21.2046 24.3762)" gradientUnits="userSpaceOnUse" r="1"><stop offset="0" stop-color="#ffda2f"/><stop offset="1" stop-color="#ff8e41"/></radialGradient><radialGradient id="m" cx="0" cy="0" gradientTransform="matrix(5.05803183 13.20706706 -11.47513659 4.39473851 12.4013 8.59263)" gradientUnits="userSpaceOnUse" r="1"><stop offset="0" stop-color="#fd5639"/><stop offset="1" stop-color="#fe5533" stop-opacity="0"/></radialGradient><radialGradient id="n" cx="0" cy="0" gradientTransform="matrix(-9.74916957 .98358048 -2.40823466 -23.8702258 19.239 20.6289)" gradientUnits="userSpaceOnUse" r="1"><stop offset=".627719" stop-color="#d7812d" stop-opacity="0"/><stop offset="1" stop-color="#d7812d"/></radialGradient><linearGradient id="o" gradientUnits="userSpaceOnUse" x1="16.5026" x2="16.5026" y1="10.6122" y2="14.2595"><stop offset="0" stop-color="#f95131"/><stop offset="1" stop-color="#f95131" stop-opacity="0"/></linearGradient><radialGradient id="p" cx="0" cy="0" gradientTransform="matrix(-12.83238972 9.64779536 -6.98131986 -9.28575015 22.9857 18.8023)" gradientUnits="userSpaceOnUse" r="1"><stop offset=".772305" stop-color="#f18a52" stop-opacity="0"/><stop offset="1" stop-color="#f18a52"/></radialGradient><linearGradient id="q" gradientUnits="userSpaceOnUse" x1="14.9957" x2="7.65549" y1="4.2552" y2="22.7319"><stop offset="0" stop-color="#ff7558"/><stop offset="1" stop-color="#f38758"/></linearGradient><linearGradient id="r" gradientUnits="userSpaceOnUse" x1="9.54097" x2="5.58208" y1="8.14373" y2="19.4793"><stop offset="0" stop-color="#ff815b"/><stop offset="1" stop-color="#ff9c6d"/></linearGradient><path d="m12.5554 8.93525c1.5367-2.39746 2.4462-4.61157 2.9208-6.17691.1819-.59994.9502-.84569 1.4062-.41557 6.8725 6.48124 9.1187 11.42943 9.5669 17.14803.3281 5.5313-2.3906 10.4532-9.6875 10.4532-6.85071 0-11.90633-4.7813-11.21886-12.3594.41085-4.529 2.17156-7.97922 3.57924-10.03311.4381-.6392 1.35082-.64847 1.85572-.06057l1.2591 1.46627c.0868.10103.2465.09017.3184-.02194z" fill="url(#d)"/><path d="m12.5554 8.93525c1.5367-2.39746 2.4462-4.61157 2.9208-6.17691.1819-.59994.9502-.84569 1.4062-.41557 6.8725 6.48124 9.1187 11.42943 9.5669 17.14803.3281 5.5313-2.3906 10.4532-9.6875 10.4532-6.85071 0-11.90633-4.7813-11.21886-12.3594.41085-4.529 2.17156-7.97922 3.57924-10.03311.4381-.6392 1.35082-.64847 1.85572-.06057l1.2591 1.46627c.0868.10103.2465.09017.3184-.02194z" fill="url(#e)"/><path d="m12.5554 8.93525c1.5367-2.39746 2.4462-4.61157 2.9208-6.17691.1819-.59994.9502-.84569 1.4062-.41557 6.8725 6.48124 9.1187 11.42943 9.5669 17.14803.3281 5.5313-2.3906 10.4532-9.6875 10.4532-6.85071 0-11.90633-4.7813-11.21886-12.3594.41085-4.529 2.17156-7.97922 3.57924-10.03311.4381-.6392 1.35082-.64847 1.85572-.06057l1.2591 1.46627c.0868.10103.2465.09017.3184-.02194z" fill="url(#f)"/><path d="m12.5554 8.93525c1.5367-2.39746 2.4462-4.61157 2.9208-6.17691.1819-.59994.9502-.84569 1.4062-.41557 6.8725 6.48124 9.1187 11.42943 9.5669 17.14803.3281 5.5313-2.3906 10.4532-9.6875 10.4532-6.85071 0-11.90633-4.7813-11.21886-12.3594.41085-4.529 2.17156-7.97922 3.57924-10.03311.4381-.6392 1.35082-.64847 1.85572-.06057l1.2591 1.46627c.0868.10103.2465.09017.3184-.02194z" fill="url(#g)"/><path d="m12.5554 8.93525c1.5367-2.39746 2.4462-4.61157 2.9208-6.17691.1819-.59994.9502-.84569 1.4062-.41557 6.8725 6.48124 9.1187 11.42943 9.5669 17.14803.3281 5.5313-2.3906 10.4532-9.6875 10.4532-6.85071 0-11.90633-4.7813-11.21886-12.3594.41085-4.529 2.17156-7.97922 3.57924-10.03311.4381-.6392 1.35082-.64847 1.85572-.06057l1.2591 1.46627c.0868.10103.2465.09017.3184-.02194z" fill="url(#h)"/><path d="m12.5554 8.93525c1.5367-2.39746 2.4462-4.61157 2.9208-6.17691.1819-.59994.9502-.84569 1.4062-.41557 6.8725 6.48124 9.1187 11.42943 9.5669 17.14803.3281 5.5313-2.3906 10.4532-9.6875 10.4532-6.85071 0-11.90633-4.7813-11.21886-12.3594.41085-4.529 2.17156-7.97922 3.57924-10.03311.4381-.6392 1.35082-.64847 1.85572-.06057l1.2591 1.46627c.0868.10103.2465.09017.3184-.02194z" fill="url(#i)"/><path d="m12.5554 8.93525c1.5367-2.39746 2.4462-4.61157 2.9208-6.17691.1819-.59994.9502-.84569 1.4062-.41557 6.8725 6.48124 9.1187 11.42943 9.5669 17.14803.3281 5.5313-2.3906 10.4532-9.6875 10.4532-6.85071 0-11.90633-4.7813-11.21886-12.3594.41085-4.529 2.17156-7.97922 3.57924-10.03311.4381-.6392 1.35082-.64847 1.85572-.06057l1.2591 1.46627c.0868.10103.2465.09017.3184-.02194z" fill="url(#j)"/><path d="m12.5554 8.93525c1.5367-2.39746 2.4462-4.61157 2.9208-6.17691.1819-.59994.9502-.84569 1.4062-.41557 6.8725 6.48124 9.1187 11.42943 9.5669 17.14803.3281 5.5313-2.3906 10.4532-9.6875 10.4532-6.85071 0-11.90633-4.7813-11.21886-12.3594.41085-4.529 2.17156-7.97922 3.57924-10.03311.4381-.6392 1.35082-.64847 1.85572-.06057l1.2591 1.46627c.0868.10103.2465.09017.3184-.02194z" fill="url(#k)"/><g filter="url(#a)"><path d="m10.1782 19.8769c1.3023-3.0993 3.9746-6.5289 5.7792-8.3894.5099-.5257 1.3341-.5351 1.8727-.0388 3.4612 3.189 4.5031 6.072 5.3873 9.4282.9198 3.4917 0 9.1177-6.9216 9.1177-5.9607 0-8.02561-5.5772-6.1176-10.1177z" fill="url(#l)"/><path d="m10.1782 19.8769c1.3023-3.0993 3.9746-6.5289 5.7792-8.3894.5099-.5257 1.3341-.5351 1.8727-.0388 3.4612 3.189 4.5031 6.072 5.3873 9.4282.9198 3.4917 0 9.1177-6.9216 9.1177-5.9607 0-8.02561-5.5772-6.1176-10.1177z" fill="url(#m)"/><path d="m10.1782 19.8769c1.3023-3.0993 3.9746-6.5289 5.7792-8.3894.5099-.5257 1.3341-.5351 1.8727-.0388 3.4612 3.189 4.5031 6.072 5.3873 9.4282.9198 3.4917 0 9.1177-6.9216 9.1177-5.9607 0-8.02561-5.5772-6.1176-10.1177z" fill="url(#n)"/></g><path d="m10.1782 19.8769c1.3023-3.0993 3.9746-6.5289 5.7792-8.3894.5099-.5257 1.3341-.5351 1.8727-.0388 3.4612 3.189 4.5031 6.072 5.3873 9.4282.9198 3.4917 0 9.1177-6.9216 9.1177-5.9607 0-8.02561-5.5772-6.1176-10.1177z" fill="url(#o)"/><path d="m10.1782 19.8769c1.3023-3.0993 3.9746-6.5289 5.7792-8.3894.5099-.5257 1.3341-.5351 1.8727-.0388 3.4612 3.189 4.5031 6.072 5.3873 9.4282.9198 3.4917 0 9.1177-6.9216 9.1177-5.9607 0-8.02561-5.5772-6.1176-10.1177z" fill="url(#p)"/><g filter="url(#b)"><path d="m11.8137 11.5385c2.3154-3.38999 3.6694-7.05706 4.0829-7.96197-.603 4.6348-2.3602 8.02817-5.6679 12.39807-2.64616 3.496-3.12394 6.4888-3.10096 7.2171-.82693-5.5617 1.79167-7.4157 4.68596-11.6532z" fill="url(#q)"/></g><g filter="url(#c)"><path d="m9.81366 7.87422c-1.30006 1.61368-3.88416 6.08958-3.82018 11.08398 1.28144-5.1224 4.27572-6.7367 3.82018-11.08398z" fill="url(#r)"/></g></svg>