<svg width="21" height="21" viewBox="0 0 21 21" fill="none" xmlns="http://www.w3.org/2000/svg">
<path d="M9.75 3.837C9.75 3.482 9.564 3.161 9.349 2.878C9.12511 2.59137 9.0024 2.2387 9 1.875C9 0.839 10.007 0 11.25 0C12.493 0 13.5 0.84 13.5 1.875C13.5 2.244 13.372 2.588 13.151 2.878C12.936 3.161 12.75 3.482 12.75 3.837C12.75 4.169 13.028 4.435 13.36 4.415C15.27 4.301 17.15 4.073 18.992 3.739C19.0923 3.72081 19.1953 3.72327 19.2947 3.74623C19.394 3.76919 19.4876 3.81217 19.5698 3.87254C19.652 3.93291 19.721 4.0094 19.7726 4.09734C19.8242 4.18528 19.8574 4.28282 19.87 4.384C20.0963 6.19296 20.2218 8.0131 20.246 9.836C20.2469 9.92312 20.2305 10.0096 20.1977 10.0903C20.1649 10.171 20.1164 10.2444 20.055 10.3062C19.9936 10.368 19.9205 10.4169 19.84 10.4502C19.7595 10.4835 19.6731 10.5004 19.586 10.5C19.232 10.5 18.911 10.314 18.628 10.099C18.3414 9.87511 17.9887 9.7524 17.625 9.75C16.59 9.75 15.75 10.757 15.75 12C15.75 13.243 16.59 14.25 17.625 14.25C17.994 14.25 18.338 14.122 18.628 13.901C18.911 13.686 19.232 13.5 19.587 13.5C19.897 13.5 20.144 13.762 20.121 14.071C20.0037 15.6949 19.8051 17.3119 19.526 18.916C19.4995 19.0681 19.4267 19.2083 19.3175 19.3175C19.2083 19.4267 19.0681 19.4995 18.916 19.526C17.096 19.843 15.243 20.059 13.361 20.168C13.2822 20.1722 13.2033 20.1603 13.1293 20.133C13.0552 20.1057 12.9875 20.0635 12.9303 20.0091C12.8731 19.9547 12.8276 19.8893 12.7966 19.8167C12.7656 19.7441 12.7498 19.6659 12.75 19.587C12.75 19.232 12.936 18.911 13.151 18.628C13.372 18.338 13.5 17.994 13.5 17.625C13.5 16.59 12.493 15.75 11.25 15.75C10.007 15.75 9 16.59 9 17.625C9 17.994 9.128 18.338 9.349 18.628C9.564 18.911 9.75 19.232 9.75 19.587C9.7503 19.6728 9.73337 19.7578 9.70022 19.8369C9.66707 19.916 9.61837 19.9877 9.557 20.0477C9.49564 20.1076 9.42287 20.1547 9.34299 20.186C9.26312 20.2173 9.17777 20.2323 9.092 20.23C7.5178 20.1855 5.94665 20.0654 4.384 19.87C4.28282 19.8574 4.18528 19.8242 4.09734 19.7726C4.0094 19.721 3.93291 19.652 3.87254 19.5698C3.81217 19.4876 3.76919 19.394 3.74623 19.2947C3.72327 19.1953 3.72081 19.0923 3.739 18.992C4.032 17.378 4.243 15.735 4.368 14.068C4.37323 13.9952 4.36337 13.9221 4.33903 13.8533C4.31468 13.7844 4.27638 13.7214 4.22653 13.6681C4.17668 13.6147 4.11634 13.5723 4.04931 13.5434C3.98228 13.5144 3.91 13.4997 3.837 13.5C3.482 13.5 3.161 13.686 2.878 13.901C2.588 14.122 2.244 14.25 1.875 14.25C0.839 14.25 0 13.243 0 12C0 10.757 0.84 9.75 1.875 9.75C2.244 9.75 2.588 9.878 2.878 10.099C3.161 10.314 3.482 10.5 3.837 10.5C3.92399 10.5004 4.01019 10.4835 4.09059 10.4503C4.17099 10.417 4.24397 10.3682 4.3053 10.3065C4.36663 10.2448 4.41507 10.1715 4.44781 10.0909C4.48055 10.0103 4.49693 9.92399 4.496 9.837C4.47412 8.22613 4.37066 6.6174 4.186 5.017C4.17292 4.90475 4.18537 4.791 4.22242 4.68424C4.25948 4.57748 4.32018 4.48048 4.39999 4.40047C4.4798 4.32047 4.57666 4.25953 4.68333 4.22222C4.79 4.18491 4.90372 4.17219 5.016 4.185C6.359 4.34 7.719 4.439 9.093 4.479C9.17863 4.48128 9.26385 4.46634 9.34361 4.43507C9.42336 4.4038 9.49603 4.35684 9.5573 4.29697C9.61857 4.2371 9.66719 4.16554 9.70029 4.08653C9.73339 4.00752 9.7503 3.92266 9.75 3.837Z" fill="#20B356"/>
</svg>
