<svg fill="none" height="32" viewBox="0 0 32 32" width="32" xmlns="http://www.w3.org/2000/svg" xmlns:xlink="http://www.w3.org/1999/xlink"><filter id="a" color-interpolation-filters="sRGB" filterUnits="userSpaceOnUse" height="18.2843" width="17.1617" x="2.5741" y="11.6755"><feFlood flood-opacity="0" result="BackgroundImageFix"/><feBlend in="SourceGraphic" in2="BackgroundImageFix" mode="normal" result="shape"/><feColorMatrix in="SourceAlpha" result="hardAlpha" type="matrix" values="0 0 0 0 0 0 0 0 0 0 0 0 0 0 0 0 0 0 127 0"/><feOffset dy="-.5"/><feGaussianBlur stdDeviation=".5"/><feComposite in2="hardAlpha" k2="-1" k3="1" operator="arithmetic"/><feColorMatrix type="matrix" values="0 0 0 0 0.92549 0 0 0 0 0.34902 0 0 0 0 0.384314 0 0 0 1 0"/><feBlend in2="shape" mode="normal" result="effect1_innerShadow_18_504"/></filter><filter id="b" color-interpolation-filters="sRGB" filterUnits="userSpaceOnUse" height="13.4214" width="15.2028" x="4.69678" y="11.9131"><feFlood flood-opacity="0" result="BackgroundImageFix"/><feBlend in="SourceGraphic" in2="BackgroundImageFix" mode="normal" result="shape"/><feGaussianBlur result="effect1_foregroundBlur_18_504" stdDeviation=".25"/></filter><filter id="c" color-interpolation-filters="sRGB" filterUnits="userSpaceOnUse" height="11.725" width="13.4499" x="5.82966" y="12.3244"><feFlood flood-opacity="0" result="BackgroundImageFix"/><feBlend in="SourceGraphic" in2="BackgroundImageFix" mode="normal" result="shape"/><feGaussianBlur result="effect1_foregroundBlur_18_504" stdDeviation=".1"/></filter><filter id="d" color-interpolation-filters="sRGB" filterUnits="userSpaceOnUse" height="4.54919" width="9.72522" x="19.6794" y="10.5868"><feFlood flood-opacity="0" result="BackgroundImageFix"/><feBlend in="SourceGraphic" in2="BackgroundImageFix" mode="normal" result="shape"/><feColorMatrix in="SourceAlpha" result="hardAlpha" type="matrix" values="0 0 0 0 0 0 0 0 0 0 0 0 0 0 0 0 0 0 127 0"/><feOffset dx=".25" dy="-.25"/><feGaussianBlur stdDeviation=".25"/><feComposite in2="hardAlpha" k2="-1" k3="1" operator="arithmetic"/><feColorMatrix type="matrix" values="0 0 0 0 0.721569 0 0 0 0 0.270588 0 0 0 0 0.470588 0 0 0 1 0"/><feBlend in2="shape" mode="normal" result="effect1_innerShadow_18_504"/></filter><filter id="e" color-interpolation-filters="sRGB" filterUnits="userSpaceOnUse" height="13.3691" width="4.31028" x="7.56653" y="6.01093"><feFlood flood-opacity="0" result="BackgroundImageFix"/><feBlend in="SourceGraphic" in2="BackgroundImageFix" mode="normal" result="shape"/><feColorMatrix in="SourceAlpha" result="hardAlpha" type="matrix" values="0 0 0 0 0 0 0 0 0 0 0 0 0 0 0 0 0 0 127 0"/><feOffset dx=".15" dy=".25"/><feGaussianBlur stdDeviation=".5"/><feComposite in2="hardAlpha" k2="-1" k3="1" operator="arithmetic"/><feColorMatrix type="matrix" values="0 0 0 0 0.721569 0 0 0 0 0.184314 0 0 0 0 0.447059 0 0 0 1 0"/><feBlend in2="shape" mode="normal" result="effect1_innerShadow_18_504"/></filter><filter id="f" color-interpolation-filters="sRGB" filterUnits="userSpaceOnUse" height="3.85834" width="2.51245" x="16.3418" y="9.31836"><feFlood flood-opacity="0" result="BackgroundImageFix"/><feBlend in="SourceGraphic" in2="BackgroundImageFix" mode="normal" result="shape"/><feColorMatrix in="SourceAlpha" result="hardAlpha" type="matrix" values="0 0 0 0 0 0 0 0 0 0 0 0 0 0 0 0 0 0 127 0"/><feOffset dx=".5" dy="-.25"/><feGaussianBlur stdDeviation=".325"/><feComposite in2="hardAlpha" k2="-1" k3="1" operator="arithmetic"/><feColorMatrix type="matrix" values="0 0 0 0 0.239216 0 0 0 0 0.439216 0 0 0 0 0.768627 0 0 0 1 0"/><feBlend in2="shape" mode="normal" result="effect1_innerShadow_18_504"/></filter><filter id="g" color-interpolation-filters="sRGB" filterUnits="userSpaceOnUse" height="2.82156" width="3.5502" x="13.4495" y="7.09722"><feFlood flood-opacity="0" result="BackgroundImageFix"/><feBlend in="SourceGraphic" in2="BackgroundImageFix" mode="normal" result="shape"/><feGaussianBlur result="effect1_foregroundBlur_18_504" stdDeviation=".15"/></filter><filter id="h" color-interpolation-filters="sRGB" filterUnits="userSpaceOnUse" height="8.45005" width="3.88755" x="16.184" y="2.4156"><feFlood flood-opacity="0" result="BackgroundImageFix"/><feBlend in="SourceGraphic" in2="BackgroundImageFix" mode="normal" result="shape"/><feGaussianBlur result="effect1_foregroundBlur_18_504" stdDeviation=".225"/></filter><linearGradient id="i" gradientUnits="userSpaceOnUse" x1="4.22164" x2="12.2841" y1="19.9844" y2="26.9844"><stop offset="0" stop-color="#b3843c"/><stop offset="1" stop-color="#f17a61"/></linearGradient><linearGradient id="j" gradientUnits="userSpaceOnUse" x1="3.33073" x2="5.69039" y1="21.0677" y2="21.5469"><stop offset="0" stop-color="#b1853b"/><stop offset="1" stop-color="#b1853b" stop-opacity="0"/></linearGradient><linearGradient id="k" gradientUnits="userSpaceOnUse" x1="19.7358" x2="15.7529" y1="23.8281" y2="24.4844"><stop offset="0" stop-color="#f9c26c"/><stop offset="1" stop-color="#f9c26c" stop-opacity="0"/></linearGradient><linearGradient id="l" gradientUnits="userSpaceOnUse" x1="11.155" x2="8.59664" y1="12.3906" y2="16.7344"><stop offset="0" stop-color="#e6bf69"/><stop offset="1" stop-color="#e6bf69" stop-opacity="0"/></linearGradient><linearGradient id="m" gradientUnits="userSpaceOnUse" x1="12.3231" x2="13.3521" y1="21.8037" y2="14.9232"><stop offset="0" stop-color="#fccb57"/><stop offset="1" stop-color="#f5bd55"/></linearGradient><linearGradient id="n" gradientUnits="userSpaceOnUse" x1="5.14749" x2="21.6274" y1="17.8646" y2="18.6701"><stop offset="0" stop-color="#f3ab2c"/><stop offset="1" stop-color="#b57f1e"/></linearGradient><radialGradient id="o" cx="0" cy="0" gradientTransform="matrix(-2.12222449 -6.11998117 1.71413327 -.59440961 8.45366 20.5208)" gradientUnits="userSpaceOnUse" r="1"><stop offset=".423414" stop-color="#ca851e"/><stop offset="1" stop-color="#ca851e" stop-opacity="0"/></radialGradient><radialGradient id="p" cx="0" cy="0" gradientTransform="matrix(1.89264193 -6.22832381 3.64736706 1.10834954 15.2355 20.612)" gradientUnits="userSpaceOnUse" r="1"><stop offset="0" stop-color="#bc7f28"/><stop offset="1" stop-color="#bc7f28" stop-opacity="0"/></radialGradient><radialGradient id="q" cx="0" cy="0" gradientTransform="matrix(-1.29687896 1.14061997 -1.14061997 -1.29687896 15.4872 15.6719)" gradientUnits="userSpaceOnUse" r="1"><stop offset="0" stop-color="#5ac0ff"/><stop offset="1" stop-color="#3279b6"/></radialGradient><radialGradient id="r" cx="0" cy="0" gradientTransform="matrix(-1.63032085 .59174537 -.6486275 -1.7870371 15.1926 15.8342)" gradientUnits="userSpaceOnUse" r="1"><stop offset=".534713" stop-color="#3a619e" stop-opacity="0"/><stop offset="1" stop-color="#3a619e"/></radialGradient><radialGradient id="s" cx="0" cy="0" gradientTransform="matrix(-1.38776669 1.40880393 -1.40880393 -1.38776669 25.5281 22.3978)" gradientUnits="userSpaceOnUse" r="1"><stop offset="0" stop-color="#fdd46c"/><stop offset="1" stop-color="#f09c53"/></radialGradient><radialGradient id="t" cx="0" cy="0" gradientTransform="matrix(-.36795483 1.92396055 -1.92396055 -.36795483 25.055 22.2927)" gradientUnits="userSpaceOnUse" r="1"><stop offset=".792052" stop-color="#e76260" stop-opacity="0"/><stop offset=".964251" stop-color="#e76260"/></radialGradient><radialGradient id="u" cx="0" cy="0" gradientTransform="matrix(-1.67412213 -1.06415245 1.25318514 -1.97150792 25.405 23.1048)" gradientUnits="userSpaceOnUse" r="1"><stop offset=".482355" stop-color="#aa885a" stop-opacity="0"/><stop offset=".90682" stop-color="#aa885a"/></radialGradient><linearGradient id="v"><stop offset="0" stop-color="#ff46aa"/><stop offset="1" stop-color="#e3189d"/></linearGradient><radialGradient id="w" cx="0" cy="0" gradientTransform="matrix(-1.38879863 1.52162176 -1.52162176 -1.38879863 24.6848 6.54746)" gradientUnits="userSpaceOnUse" r="1" xlink:href="#v"/><linearGradient id="x"><stop offset=".522105" stop-color="#b63173" stop-opacity="0"/><stop offset="1" stop-color="#b63173"/></linearGradient><radialGradient id="y" cx="0" cy="0" gradientTransform="matrix(-1.85937594 -.21875548 .29276335 -2.48842739 24.331 7.23437)" gradientUnits="userSpaceOnUse" r="1" xlink:href="#x"/><radialGradient id="z" cx="0" cy="0" gradientTransform="matrix(-1.40158745 1.19394154 -1.19394154 -1.40158745 10.7792 2.8856)" gradientUnits="userSpaceOnUse" r="1"><stop offset="0" stop-color="#fff46f"/><stop offset="1" stop-color="#efb93c"/></radialGradient><radialGradient id="A" cx="0" cy="0" gradientTransform="matrix(-1.91400042 -.04948473 .04711548 -1.82236104 10.5158 3.17236)" gradientUnits="userSpaceOnUse" r="1"><stop offset=".558644" stop-color="#aa904b" stop-opacity="0"/><stop offset=".943632" stop-color="#aa904b"/></radialGradient><radialGradient id="B" cx="0" cy="0" gradientTransform="matrix(-.43749644 1.9999983 -1.9999983 -.43749644 10.2997 2.6875)" gradientUnits="userSpaceOnUse" r="1"><stop offset=".771901" stop-color="#c47072" stop-opacity="0"/><stop offset="1" stop-color="#c47072"/></radialGradient><radialGradient id="C" cx="0" cy="0" gradientTransform="matrix(-1.38879863 1.52162176 -1.52162176 -1.38879863 5.78992 7.64121)" gradientUnits="userSpaceOnUse" r="1" xlink:href="#v"/><radialGradient id="D" cx="0" cy="0" gradientTransform="matrix(-1.85937594 -.21875548 .29276335 -2.48842739 5.43616 8.32812)" gradientUnits="userSpaceOnUse" r="1" xlink:href="#x"/><linearGradient id="E"><stop offset="0" stop-color="#3365ff"/><stop offset="1" stop-color="#356db9"/></linearGradient><radialGradient id="F" cx="0" cy="0" gradientTransform="matrix(-2.90624395 3.09375323 -6.77355949 -6.36302084 11.2216 25.0781)" gradientUnits="userSpaceOnUse" r="1" xlink:href="#E"/><radialGradient id="G" cx="0" cy="0" gradientTransform="matrix(-1.73953115 1.95941885 -4.956507 -4.40028345 7.4091 28.0156)" gradientUnits="userSpaceOnUse" r="1" xlink:href="#E"/><radialGradient id="H" cx="0" cy="0" gradientTransform="matrix(-4.21876123 .87496894 -.32643136 -1.57392555 27.5341 11.8907)" gradientUnits="userSpaceOnUse" r="1"><stop offset="0" stop-color="#ff3ba9"/><stop offset="1" stop-color="#f422a7"/></radialGradient><radialGradient id="I" cx="0" cy="0" gradientTransform="matrix(-2.69543991 -3.53123354 6.29336989 -4.8038172 24.417 15.3282)" gradientUnits="userSpaceOnUse" r="1"><stop offset=".752144" stop-color="#b8306f" stop-opacity="0"/><stop offset="1" stop-color="#b8306f"/></radialGradient><linearGradient id="J" gradientUnits="userSpaceOnUse" x1="19.0623" x2="14.5804" y1="2.08124" y2="12.8229"><stop offset="0" stop-color="#20b2ee"/><stop offset="1" stop-color="#2689da"/></linearGradient><radialGradient id="K" cx="0" cy="0" gradientTransform="matrix(-4.80105425 6.09732821 -3.7295915 -2.93669137 18.0785 5.57065)" gradientUnits="userSpaceOnUse" r="1"><stop offset=".80204" stop-color="#4274d2" stop-opacity="0"/><stop offset=".950917" stop-color="#4274d2"/></radialGradient><radialGradient id="L" cx="0" cy="0" gradientTransform="matrix(1.09375005 .23437587 -.78681591 3.67179415 17.6903 4.67188)" gradientUnits="userSpaceOnUse" r="1"><stop offset="0" stop-color="#4d8ec0"/><stop offset="1" stop-color="#4d8ec0" stop-opacity="0"/></radialGradient><radialGradient id="M" cx="0" cy="0" gradientTransform="matrix(-1.07812647 .84374986 -.75858847 -.96930897 19.9091 2.25)" gradientUnits="userSpaceOnUse" r="1"><stop offset="0" stop-color="#5adeff"/><stop offset="1" stop-color="#5adeff" stop-opacity="0"/></radialGradient><linearGradient id="N" gradientUnits="userSpaceOnUse" x1="14.4503" x2="27.8595" y1="21.6949" y2="18.1808"><stop offset="0" stop-color="#3797e2"/><stop offset="1" stop-color="#37aeff"/></linearGradient><radialGradient id="O" cx="0" cy="0" gradientTransform="matrix(-5.11215326 -6.12752872 15.35994065 -12.8146883 19.4103 23.8875)" gradientUnits="userSpaceOnUse" r="1"><stop offset=".622552" stop-color="#526579" stop-opacity="0"/><stop offset=".962126" stop-color="#526579"/></radialGradient><radialGradient id="P" cx="0" cy="0" gradientTransform="matrix(-.21008679 2.73113167 -5.49096853 -.42238168 23.8922 19.5807)" gradientUnits="userSpaceOnUse" r="1"><stop offset=".396078" stop-color="#6972ff"/><stop offset="1" stop-color="#6972ff" stop-opacity="0"/></radialGradient><radialGradient id="Q" cx="0" cy="0" gradientTransform="matrix(.27136358 -.70029127 .55226065 .21400156 27.9539 17.2785)" gradientUnits="userSpaceOnUse" r="1"><stop offset="0" stop-color="#55bfff"/><stop offset="1" stop-color="#55bfff" stop-opacity="0"/></radialGradient><radialGradient id="R" cx="0" cy="0" gradientTransform="matrix(-1.19709637 7.21317991 -2.70233809 -.44847892 10.8438 6.43625)" gradientUnits="userSpaceOnUse" r="1"><stop offset="0" stop-color="#ff3aaa"/><stop offset="1" stop-color="#fd2f89"/></radialGradient><radialGradient id="S" cx="0" cy="0" gradientTransform="matrix(4.11403234 2.48916237 -7.81170793 12.91101752 7.02623 13.9761)" gradientUnits="userSpaceOnUse" r="1"><stop offset=".803698" stop-color="#db2c6e" stop-opacity="0"/><stop offset="1" stop-color="#db2c6e"/></radialGradient><radialGradient id="T" cx="0" cy="0" gradientTransform="matrix(-1.33717702 -2.38965762 1.78628727 -.99955001 16.4194 9.51961)" gradientUnits="userSpaceOnUse" r="1"><stop offset="0" stop-color="#336baf"/><stop offset="1" stop-color="#336baf" stop-opacity="0"/></radialGradient><radialGradient id="U" cx="0" cy="0" gradientTransform="matrix(-1.13334803 -1.46865767 .59503472 -.45918218 17.3094 7.45303)" gradientUnits="userSpaceOnUse" r="1"><stop offset="0" stop-color="#49a4d4"/><stop offset="1" stop-color="#49a4d4" stop-opacity="0"/></radialGradient><radialGradient id="V" cx="0" cy="0" gradientTransform="matrix(-.21874814 2.5781265 -1.43484444 -.12174327 18.1435 9.48437)" gradientUnits="userSpaceOnUse" r="1"><stop offset="0" stop-color="#4ab5f8"/><stop offset="1" stop-color="#4ab5f8" stop-opacity="0"/></radialGradient><linearGradient id="W" gradientUnits="userSpaceOnUse" x1="13.5966" x2="16.3778" y1="8.18929" y2="7.50775"><stop offset="0" stop-color="#4eaff2"/><stop offset="1" stop-color="#4eaff2" stop-opacity="0"/></linearGradient><linearGradient id="X" gradientUnits="userSpaceOnUse" x1="19.2528" x2="15.3466" y1="1.95312" y2="10.9531"><stop offset="0" stop-color="#5bddff"/><stop offset="1" stop-color="#5bddff" stop-opacity="0"/></linearGradient><g filter="url(#a)"><path d="m18.6865 24.8555c.4392-.1915.6219-.4718.7539-.6368 1.1853-1.4805-1.3437-5.875-4.9544-8.4178-3.8268-3.3322-8.04037-4.4676-9.2257-2.9871-.20344.2541-.36288.6002-.42928.9909l-2.25001 12.9453c-.07812 1.5781.52505 2.1778.82689 2.4708.54697.5308 1.61062.9823 2.71999.5917 4.28121-1.6485 8.29201-3.097 12.55861-4.957z" fill="url(#i)"/></g><path d="m18.6865 24.8555c.4392-.1915.6219-.4718.7539-.6368 1.1853-1.4805-1.3437-5.875-4.9544-8.4178-3.8268-3.3322-8.04037-4.4676-9.2257-2.9871-.20344.2541-.36288.6002-.42928.9909l-2.25001 12.9453c-.07812 1.5781.52505 2.1778.82689 2.4708.54697.5308 1.61062.9823 2.71999.5917 4.28121-1.6485 8.29201-3.097 12.55861-4.957z" fill="url(#j)"/><path d="m18.6865 24.8555c.4392-.1915.6219-.4718.7539-.6368 1.1853-1.4805-1.3437-5.875-4.9544-8.4178-3.8268-3.3322-8.04037-4.4676-9.2257-2.9871-.20344.2541-.36288.6002-.42928.9909l-2.25001 12.9453c-.07812 1.5781.52505 2.1778.82689 2.4708.54697.5308 1.61062.9823 2.71999.5917 4.28121-1.6485 8.29201-3.097 12.55861-4.957z" fill="url(#k)"/><path d="m18.6865 24.8555c.4392-.1915.6219-.4718.7539-.6368 1.1853-1.4805-1.3437-5.875-4.9544-8.4178-3.8268-3.3322-8.04037-4.4676-9.2257-2.9871-.20344.2541-.36288.6002-.42928.9909l-2.25001 12.9453c-.07812 1.5781.52505 2.1778.82689 2.4708.54697.5308 1.61062.9823 2.71999.5917 4.28121-1.6485 8.29201-3.097 12.55861-4.957z" fill="url(#l)"/><g filter="url(#b)"><ellipse cx="12.2982" cy="18.6238" fill="url(#m)" rx="8.77242" ry="3.46422" transform="matrix(.76889094 .63937996 -.63937996 .76889094 14.74991 -3.559094)"/></g><g filter="url(#c)"><ellipse cx="12.5546" cy="18.1868" fill="url(#n)" rx="8.13023" ry="2.91536" transform="matrix(.76889094 .63937996 -.63937996 .76889094 14.529757 -3.824025)"/><ellipse cx="12.5546" cy="18.1868" fill="url(#o)" rx="8.13023" ry="2.91536" transform="matrix(.76889094 .63937996 -.63937996 .76889094 14.529757 -3.824025)"/><ellipse cx="12.5546" cy="18.1868" fill="url(#p)" rx="8.13023" ry="2.91536" transform="matrix(.76889094 .63937996 -.63937996 .76889094 14.529757 -3.824025)"/></g><circle cx="14.9559" cy="16" fill="url(#q)" r="1.20312"/><circle cx="14.9559" cy="16" fill="url(#r)" r="1.20312"/><circle cx="24.831" cy="22.9062" fill="url(#s)" r="1.20312"/><circle cx="24.831" cy="22.9062" fill="url(#t)" r="1.20312"/><circle cx="24.831" cy="22.9062" fill="url(#u)" r="1.20312"/><circle cx="23.8232" cy="7.01562" fill="url(#w)" r="1.20312"/><circle cx="23.8232" cy="7.01562" fill="url(#y)" r="1.20312"/><circle cx="9.99084" cy="3.36719" fill="url(#z)" r="1.20312"/><circle cx="9.99084" cy="3.36719" fill="url(#A)" r="1.20312"/><circle cx="9.99084" cy="3.36719" fill="url(#B)" r="1.20312"/><circle cx="4.92834" cy="8.10938" fill="url(#C)" r="1.20312"/><circle cx="4.92834" cy="8.10938" fill="url(#D)" r="1.20312"/><path d="m15.9526 26.0092c-2.606-.1811-4.4338-.961-7.39507-3.4077-2.54741-2.1046-3.81214-3.9718-4.23426-5.8758l-.48904 2.8137c.19987 1.1012 1.05924 2.6403 2.76237 4.1793 2.22749 2.013 4.4453 3.4375 6.6386 3.3751.9026-.3525 1.8066-.7119 2.7174-1.0846z" fill="url(#F)"/><path d="m10.4569 28.1629c-1.25243.0698-2.94624-.952-4.70405-2.4129-1.5-1.2969-2.2399-2.7058-2.39563-3.4661l-.49662 2.8573c.12284.483.49695 1.1396 1.57975 2.2494 1.21079 1.2411 2.42839 1.724 3.15146 1.8614.51307-.1956 1.02304-.3892 1.53086-.582.44622-.1694.89073-.3382 1.33423-.5071z" fill="url(#G)"/><g clip-rule="evenodd" fill-rule="evenodd"><g filter="url(#d)"><path d="m27.9031 13.1087c-3.5978-.7029-5.7238.9454-6.3977 1.6846-.3907.4286-1.0548.4593-1.4833.0686-.4286-.3907-.4593-1.0548-.0686-1.4833 1.0448-1.1462 3.872-3.2062 8.3523-2.331.5691.1112.9404.6627.8292 1.2319-.1112.5691-.6627.9404-1.2319.8292z" fill="url(#H)"/><path d="m27.9031 13.1087c-3.5978-.7029-5.7238.9454-6.3977 1.6846-.3907.4286-1.0548.4593-1.4833.0686-.4286-.3907-.4593-1.0548-.0686-1.4833 1.0448-1.1462 3.872-3.2062 8.3523-2.331.5691.1112.9404.6627.8292 1.2319-.1112.5691-.6627.9404-1.2319.8292z" fill="url(#I)"/></g><path d="m19.104 2.08229c.5241.02451.9291.46924.9046.99334-.0337.72158-.1651 1.92365-.4785 3.20766-.262 1.07325-.6654 2.26364-1.2865 3.28421.1502.7962.1542 1.7357-.0107 2.804-.08.5185-.5652.874-1.0838.794-.5185-.0801-.874-.5653-.794-1.0838.0369-.2391.0631-.4629.0799-.6724-.1844.0962-.3732.1716-.566.2254-.7531.2104-1.4754.0646-2.0404-.3118-1.0735-.715-1.5684-2.27982-.7375-3.55909.7904-1.21697 2.4377-1.54785 3.6904-.68201.1444.09984.28.21233.4064.33715.1999-.50542.3642-1.04473.4964-1.58627.2812-1.15178.3977-2.23144.4264-2.84579.0245-.5241.4692-.9291.9933-.9046zm-2.9471 7.14049c-.1442-.30032-.3155-.48107-.4558-.57801-.3919-.27087-.8226-.14472-1.0166.15394-.208.32025-.098.74614.1974.94294.1195.07956.2726.11994.4758.06315.1839-.05138.4653-.2006.7992-.58202z" fill="url(#J)"/><path d="m19.104 2.08229c.5241.02451.9291.46924.9046.99334-.0337.72158-.1651 1.92365-.4785 3.20766-.262 1.07325-.6654 2.26364-1.2865 3.28421.1502.7962.1542 1.7357-.0107 2.804-.08.5185-.5652.874-1.0838.794-.5185-.0801-.874-.5653-.794-1.0838.0369-.2391.0631-.4629.0799-.6724-.1844.0962-.3732.1716-.566.2254-.7531.2104-1.4754.0646-2.0404-.3118-1.0735-.715-1.5684-2.27982-.7375-3.55909.7904-1.21697 2.4377-1.54785 3.6904-.68201.1444.09984.28.21233.4064.33715.1999-.50542.3642-1.04473.4964-1.58627.2812-1.15178.3977-2.23144.4264-2.84579.0245-.5241.4692-.9291.9933-.9046zm-2.9471 7.14049c-.1442-.30032-.3155-.48107-.4558-.57801-.3919-.27087-.8226-.14472-1.0166.15394-.208.32025-.098.74614.1974.94294.1195.07956.2726.11994.4758.06315.1839-.05138.4653-.2006.7992-.58202z" fill="url(#K)"/><path d="m19.104 2.08229c.5241.02451.9291.46924.9046.99334-.0337.72158-.1651 1.92365-.4785 3.20766-.262 1.07325-.6654 2.26364-1.2865 3.28421.1502.7962.1542 1.7357-.0107 2.804-.08.5185-.5652.874-1.0838.794-.5185-.0801-.874-.5653-.794-1.0838.0369-.2391.0631-.4629.0799-.6724-.1844.0962-.3732.1716-.566.2254-.7531.2104-1.4754.0646-2.0404-.3118-1.0735-.715-1.5684-2.27982-.7375-3.55909.7904-1.21697 2.4377-1.54785 3.6904-.68201.1444.09984.28.21233.4064.33715.1999-.50542.3642-1.04473.4964-1.58627.2812-1.15178.3977-2.23144.4264-2.84579.0245-.5241.4692-.9291.9933-.9046zm-2.9471 7.14049c-.1442-.30032-.3155-.48107-.4558-.57801-.3919-.27087-.8226-.14472-1.0166.15394-.208.32025-.098.74614.1974.94294.1195.07956.2726.11994.4758.06315.1839-.05138.4653-.2006.7992-.58202z" fill="url(#L)"/><path d="m19.104 2.08229c.5241.02451.9291.46924.9046.99334-.0337.72158-.1651 1.92365-.4785 3.20766-.262 1.07325-.6654 2.26364-1.2865 3.28421.1502.7962.1542 1.7357-.0107 2.804-.08.5185-.5652.874-1.0838.794-.5185-.0801-.874-.5653-.794-1.0838.0369-.2391.0631-.4629.0799-.6724-.1844.0962-.3732.1716-.566.2254-.7531.2104-1.4754.0646-2.0404-.3118-1.0735-.715-1.5684-2.27982-.7375-3.55909.7904-1.21697 2.4377-1.54785 3.6904-.68201.1444.09984.28.21233.4064.33715.1999-.50542.3642-1.04473.4964-1.58627.2812-1.15178.3977-2.23144.4264-2.84579.0245-.5241.4692-.9291.9933-.9046zm-2.9471 7.14049c-.1442-.30032-.3155-.48107-.4558-.57801-.3919-.27087-.8226-.14472-1.0166.15394-.208.32025-.098.74614.1974.94294.1195.07956.2726.11994.4758.06315.1839-.05138.4653-.2006.7992-.58202z" fill="url(#M)"/><path d="m13.8416 22.6062c-.6842-.3783-1.3974-.8365-2.1148-1.3655 1.0864-1.3465 3.027-3.1127 5.5572-4.3881 4.1574-2.0956 8.7414-.9582 10.6092-.2177.6418.2544.9558.9809.7014 1.6227-.2544.6417-.9809.9557-1.6227.7013-1.6009-.6346-5.3446-1.496-8.5626.1261-2.1225 1.0699-3.7007 2.5084-4.5677 3.5212z" fill="url(#N)"/><path d="m13.8416 22.6062c-.6842-.3783-1.3974-.8365-2.1148-1.3655 1.0864-1.3465 3.027-3.1127 5.5572-4.3881 4.1574-2.0956 8.7414-.9582 10.6092-.2177.6418.2544.9558.9809.7014 1.6227-.2544.6417-.9809.9557-1.6227.7013-1.6009-.6346-5.3446-1.496-8.5626.1261-2.1225 1.0699-3.7007 2.5084-4.5677 3.5212z" fill="url(#O)"/><path d="m13.8416 22.6062c-.6842-.3783-1.3974-.8365-2.1148-1.3655 1.0864-1.3465 3.027-3.1127 5.5572-4.3881 4.1574-2.0956 8.7414-.9582 10.6092-.2177.6418.2544.9558.9809.7014 1.6227-.2544.6417-.9809.9557-1.6227.7013-1.6009-.6346-5.3446-1.496-8.5626.1261-2.1225 1.0699-3.7007 2.5084-4.5677 3.5212z" fill="url(#P)"/><path d="m13.8416 22.6062c-.6842-.3783-1.3974-.8365-2.1148-1.3655 1.0864-1.3465 3.027-3.1127 5.5572-4.3881 4.1574-2.0956 8.7414-.9582 10.6092-.2177.6418.2544.9558.9809.7014 1.6227-.2544.6417-.9809.9557-1.6227.7013-1.6009-.6346-5.3446-1.496-8.5626.1261-2.1225 1.0699-3.7007 2.5084-4.5677 3.5212z" fill="url(#Q)"/><g filter="url(#e)"><path d="m10.1919 6.65335c-.33563-.60325-1.09678-.82016-1.70003-.48448s-.82016 1.09684-.48448 1.70009c.5069.91095 1.13104 2.19694 1.21092 3.85284.06961 1.4431-.2702 3.2733-1.65178 5.4688.47803.6326 1.05529 1.2883 1.71561 1.9394 1.94786-2.8335 2.53736-5.3713 2.43326-7.5287-.1076-2.23083-.9522-3.9214-1.5235-4.94795z" fill="url(#R)"/><path d="m10.1919 6.65335c-.33563-.60325-1.09678-.82016-1.70003-.48448s-.82016 1.09684-.48448 1.70009c.5069.91095 1.13104 2.19694 1.21092 3.85284.06961 1.4431-.2702 3.2733-1.65178 5.4688.47803.6326 1.05529 1.2883 1.71561 1.9394 1.94786-2.8335 2.53736-5.3713 2.43326-7.5287-.1076-2.23083-.9522-3.9214-1.5235-4.94795z" fill="url(#S)"/></g></g><path d="m12.8551 8.2115c.0614-.15182.139-.30161.2339-.44768.7904-1.21697 2.4377-1.54784 3.6904-.682.1444.09983.28.21232.4064.33714.0409-.10327.0802-.20795.1181-.31378.0019.0064.0037.01276.0055.0191-.2573.81054-.8347 1.67823-1.1554 2.09683-.1441-.29931-.315-.47956-.455-.57632-.3919-.27088-.8226-.14472-1.0166.15393-.0076.01162-.0147.02338-.0214.03527z" fill="url(#T)"/><path d="m12.8551 8.2115c.0614-.15182.139-.30161.2339-.44768.7904-1.21697 2.4377-1.54784 3.6904-.682.1444.09983.28.21232.4064.33714.0409-.10327.0802-.20795.1181-.31378.0019.0064.0037.01276.0055.0191-.2573.81054-.8347 1.67823-1.1554 2.09683-.1441-.29931-.315-.47956-.455-.57632-.3919-.27088-.8226-.14472-1.0166.15393-.0076.01162-.0147.02338-.0214.03527z" fill="url(#U)"/><g filter="url(#f)"><path d="m18.2416 9.56836c.1501.79604.154 1.73524-.0108 2.80314-.08.5185-.5652.874-1.0838.7939-.5185-.08-.874-.5652-.794-1.0837.0369-.2386.063-.4621.0798-.6712.982-.6165 1.6303-1.43686 1.8088-1.84214z" fill="#44b6ff"/></g><path d="m18.2416 9.56836c.1501.79604.154 1.73524-.0108 2.80314-.08.5185-.5652.874-1.0838.7939-.5185-.08-.874-.5652-.794-1.0837.0369-.2386.063-.4621.0798-.6712.982-.6165 1.6303-1.43686 1.8088-1.84214z" fill="url(#V)"/><g filter="url(#g)"><path d="m16.5497 8.17186c-.2656-.35936-1.1172-1-2.1875-.33596-.3591.22276-.5703 1.06252-.4063 1.63283" stroke="url(#W)" stroke-linecap="round" stroke-width=".3"/></g><g filter="url(#h)"><path d="m19.4716 3.01562c-.0834 1.51042-.7375 5.07501-2.6875 7.24998" stroke="url(#X)" stroke-linecap="round" stroke-width=".3"/></g></svg>