<svg
   viewBox="0 0 128 128">
  <g
     inkscape:label="Layer 1"
     inkscape:groupmode="layer"
     id="layer1"
     transform="translate(-40.547253,-883.62366)"
     >
    <path
       inkscape:connector-curvature="0"
       style="fill:#314cb0;fill-opacity:1;fill-rule:nonzero;stroke:#1d2d68;stroke-width:4.85048628;stroke-miterlimit:4;stroke-opacity:1"
       d="m 51.678648,901.97614 114.391972,0 c 0.51273,0 0.9255,0.43179 0.9255,0.96814 l 0,109.79552 c 0,0.5364 -0.41277,0.9682 -0.9255,0.9682 l -114.391972,0 c -0.512727,0 -0.925501,-0.4318 -0.925501,-0.9682 l 0,-109.79552 c 0,-0.53635 0.412774,-0.96814 0.925501,-0.96814 z"
       id="rect3438-4-1-6-9-8-4" />
    <path
       inkscape:connector-curvature="0"
       id="path3008"
       style="font-style:normal;font-weight:normal;font-size:120.79350281px;line-height:122.00000286%;font-family:Sans;letter-spacing:0px;word-spacing:0px;fill:#ffffff;fill-opacity:1;stroke:none"
       d="m 80.269477,948.26032 16.927605,-21.41018 c 3.460178,-4.36453 5.190288,-7.62815 5.190348,-9.79088 -6e-5,-0.78633 -0.0984,-1.41546 -0.29491,-1.8874 l 29.54958,0 c -2.24136,1.25835 -5.0528,3.91251 -8.43431,7.96246 -0.90445,1.06175 -2.49694,3.00812 -4.77747,5.83914 l -22.176937,27.60321 26.482557,36.45038 c 1.61208,2.20197 3.65676,4.67918 6.13405,7.43165 0.66837,0.7078 1.63173,1.5532 2.89008,2.5362 l -30.31634,0 c 0.23587,-0.9044 0.35383,-1.7105 0.35389,-2.4183 -6e-5,-2.1626 -1.49425,-5.2886 -4.482575,-9.37797 l -17.045568,-23.23859 0,23.5335 c -3.2e-5,5.4656 1.100949,9.29936 3.302948,11.50136 l -27.721166,0 c 1.533502,-1.5335 2.516521,-3.28331 2.949061,-5.24935 0.235913,-1.10098 0.353875,-3.16532 0.353887,-6.19303 l 0,-64.9383 c -1.2e-5,-3.02763 -0.117974,-5.09197 -0.353887,-6.19303 -0.43254,-1.96596 -1.415559,-3.71573 -2.949061,-5.24933 l 27.721166,0 c -2.201999,2.20205 -3.30298,6.01617 -3.302948,11.44236 l 0,21.6461" />
    <path
       inkscape:connector-curvature="0"
       id="path3010"
       style="font-style:normal;font-weight:normal;font-size:120.79350281px;line-height:122.00000286%;font-family:Sans;letter-spacing:0px;word-spacing:0px;fill:#ffffff;fill-opacity:1;stroke:none"
       d="m 159.48123,938.46944 0,54.14474 c -3e-5,2.83111 0.0786,4.67918 0.23593,5.54423 0.31453,1.76944 1.14027,3.38159 2.47721,4.83649 l -25.95173,0 c 1.3369,-1.4549 2.16263,-3.06705 2.47721,-4.83649 0.15727,-0.86505 0.23591,-2.71312 0.23592,-5.54423 l 0,-43.88201 c -1e-5,-2.83104 -0.0787,-4.65946 -0.23592,-5.48526 -0.31458,-1.73005 -1.12065,-3.32254 -2.41823,-4.77747 l 23.17961,0 M 149.2185,907.62227 c 3.26361,9e-5 6.03572,1.16006 8.31635,3.47989 2.3199,2.2807 3.47986,5.05281 3.47989,8.31635 -3e-5,3.34235 -1.14033,6.15378 -3.42091,8.43431 -2.24131,2.24136 -5.03308,3.362 -8.37533,3.36193 -3.26364,7e-5 -6.05541,-1.14023 -8.37533,-3.42091 -2.28061,-2.31985 -3.42092,-5.11162 -3.42091,-8.37533 -1e-5,-3.34218 1.12064,-6.13396 3.36193,-8.37533 2.28059,-2.28051 5.09203,-3.42082 8.43431,-3.42091" />
  </g>
</svg>
